<?xml version="1.0" encoding="UTF-8" standalone="no"?>
<!-- Created with Inkscape (http://www.inkscape.org/) -->

<svg
   width="7.4083333mm"
   height="7.4083333mm"
   viewBox="0 0 7.4083333 7.4083333"
   version="1.1"
   id="svg5"
   xml:space="preserve"
   xmlns:inkscape="http://www.inkscape.org/namespaces/inkscape"
   xmlns:sodipodi="http://sodipodi.sourceforge.net/DTD/sodipodi-0.dtd"
   xmlns="http://www.w3.org/2000/svg"
   xmlns:svg="http://www.w3.org/2000/svg"><sodipodi:namedview
     id="namedview7"
     pagecolor="#ffffff"
     bordercolor="#000000"
     borderopacity="0.25"
     inkscape:showpageshadow="2"
     inkscape:pageopacity="0.0"
     inkscape:pagecheckerboard="0"
     inkscape:deskcolor="#d1d1d1"
     inkscape:document-units="mm"
     showgrid="false" /><defs
     id="defs2" /><g
     inkscape:label="Layer 1"
     inkscape:groupmode="layer"
     id="layer1"
     transform="translate(70.017519,20.030809)"><g
       id="g179"
       inkscape:export-filename="ok.svg"
       inkscape:export-xdpi="96"
       inkscape:export-ydpi="96"><g
         style="fill:none"
         id="g50"
         transform="matrix(0.26458333,0,0,0.26458333,-70.017521,-20.030809)"><circle
           cx="14"
           cy="14"
           r="14"
           fill="#f1f1f1"
           id="circle41" /></g><g
         style="fill:none"
         id="g69"
         transform="matrix(0.26458333,0,0,0.26458333,-68.430011,-18.443368)"><path
           d="m 13.7178,3.79107 c -0.5071,-0.50357 -1.3241,-0.50357 -1.8277,0 L 6.23031,9.45714 4.10978,7.33839 c -0.50715,-0.50357 -1.32411,-0.50357 -1.82768,0 -0.50357,0.50714 -0.50357,1.32411 0,1.82768 L 5.1937,12.075 c 0.03483,0.0455 0.07322,0.0902 0.11518,0.1321 0.30893,0.309 0.73482,0.4295 1.13304,0.3616 0.26071,-0.041 0.51161,-0.1616 0.71161,-0.3616 0.04196,-0.0419 0.08035,-0.0866 0.11517,-0.133 l 6.4491,-6.45535 c 0.5036,-0.50714 0.5036,-1.32411 0,-1.82768 z"
           fill="#5e28d0"
           id="path60" /></g></g></g></svg>
